<?xml version="1.0" encoding="UTF-8" standalone="no"?>
<svg
   viewBox="0 0 400 225"
   version="1.1"
   id="svg28"
   sodipodi:docname="icon.svg"
   inkscape:version="1.2.2 (b0a8486541, 2022-12-01)"
   inkscape:export-filename="..\..\..\..\..\..\..\..\..\..\Users\josep\OneDrive\Bureau\essentials\iconnnn.png"
   inkscape:export-xdpi="96"
   inkscape:export-ydpi="96"
   xmlns:inkscape="http://www.inkscape.org/namespaces/inkscape"
   xmlns:sodipodi="http://sodipodi.sourceforge.net/DTD/sodipodi-0.dtd"
   xmlns="http://www.w3.org/2000/svg"
   xmlns:svg="http://www.w3.org/2000/svg">
  <sodipodi:namedview
     id="namedview30"
     pagecolor="#ffffff"
     bordercolor="#000000"
     borderopacity="0.25"
     inkscape:showpageshadow="2"
     inkscape:pageopacity="0.0"
     inkscape:pagecheckerboard="0"
     inkscape:deskcolor="#d1d1d1"
     showgrid="false"
     inkscape:zoom="1.0488889"
     inkscape:cx="120.60381"
     inkscape:cy="112.5"
     inkscape:window-width="1920"
     inkscape:window-height="1129"
     inkscape:window-x="-8"
     inkscape:window-y="-8"
     inkscape:window-maximized="1"
     inkscape:current-layer="g26" />
  <defs
     id="defs4">
    <style
       id="style2">
      .cls-1 {
        isolation: isolate;
      }

      .cls-2 {
        fill: #97baf6;
      }

      .cls-3 {
        fill: #dedede;
      }

      .cls-4 {
        opacity: 0.2;
        mix-blend-mode: multiply;
      }

      .cls-5 {
        fill: #62c485;
      }

      .cls-6 {
        fill: #34495e;
      }

      .cls-7 {
        fill: none;
      }
    </style>
  </defs>
  <title
     id="title6">drag and drop </title>
  <g
     class="cls-1"
     id="g26">
    <g
       id="Layer_2"
       data-name="Layer 2">
      <g
         id="drag_and_drop"
         data-name="drag and drop">
        <g
           id="g21">
          <path
             class="cls-2"
             d="M191.81,111.4h-5.34v-4.71h5.34Zm-10.65,0h-5.31v-4.71h5.31Zm-10.62,0h-5.31v-4.71h5.31Zm-10.62,0h-5.31v-4.71h5.31Zm-10.62,0H144v-4.71h5.31Zm-10.62,0h-5.31v-4.71h5.31Zm-10.62,0h-2.71a9.73,9.73,0,0,1-3.35-.59l1.62-4.42a5,5,0,0,0,1.73.31h2.71ZM198.21,109l-3.09-3.55a5.11,5.11,0,0,0,1.71-3.12l4.66.67A9.82,9.82,0,0,1,198.21,109Zm-81.39-2.6a9.78,9.78,0,0,1-1.25-4.79v-1.51h4.71v1.51a5.06,5.06,0,0,0,.65,2.48Zm84.76-9h-4.71V92h4.71Zm-81.31-2.57h-4.71V89.47h4.71Zm81.31-8.05h-4.71V81.42h4.71Zm-81.31-2.57h-4.71V78.85h4.71Zm81.31-8h-4.71V70.8h4.71Zm-81.31-2.57h-4.71V68.23h4.71Zm81.31-8.05h-4.71V60.18h4.71Zm-81.31-2.57h-4.71V57.62h4.71Zm81.31-8h-4.71V49.57h4.71Zm-81.31-2.57h-4.71V47h4.71Zm81.31-8.05h-4.71V42.77a5.06,5.06,0,0,0-.65-2.49l4.1-2.32a9.78,9.78,0,0,1,1.26,4.8ZM120.32,42l-4.66-.68a9.82,9.82,0,0,1,3.28-6L122,38.92A5.11,5.11,0,0,0,120.32,42ZM193.5,38a5,5,0,0,0-1.72-.3h-2.73V33h2.73a9.72,9.72,0,0,1,3.33.59Zm-9.76-.3h-5.31V33h5.31Zm-10.62,0h-5.31V33h5.31Zm-10.62,0H157.2V33h5.31Zm-10.62,0h-5.31V33h5.31Zm-10.62,0H136V33h5.31Zm-10.62,0h-5.29V33h5.31Z"
             id="path-0"
             style="fill:#ff0000" />
          <path
             class="cls-3"
             d="M282.66,111.4h-5.34v-4.71h5.34Zm-10.65,0h-5.31v-4.71H272Zm-10.62,0h-5.31v-4.71h5.31Zm-10.62,0h-5.31v-4.71h5.31Zm-10.62,0h-5.31v-4.71h5.31Zm-10.62,0h-5.31v-4.71h5.31Zm-10.62,0h-2.71a9.72,9.72,0,0,1-3.35-.59l1.62-4.42a5,5,0,0,0,1.73.31h2.71ZM289.06,109,286,105.43a5.11,5.11,0,0,0,1.71-3.12l4.66.67A9.82,9.82,0,0,1,289.06,109Zm-81.39-2.6a9.78,9.78,0,0,1-1.25-4.79v-1.51h4.71v1.51a5.07,5.07,0,0,0,.65,2.48Zm84.76-9h-4.71V92h4.71Zm-81.31-2.57h-4.71V89.47h4.71Zm81.31-8.05h-4.71V81.42h4.71Zm-81.31-2.57h-4.71V78.85h4.71Zm81.31-8.05h-4.71V70.8h4.71Zm-81.31-2.57h-4.71V68.23h4.71Zm81.31-8.05h-4.71V60.18h4.71Zm-81.31-2.57h-4.71V57.62h4.71Zm81.31-8.05h-4.71V49.57h4.71Zm-81.31-2.57h-4.71V47h4.71Zm81.31-8.05h-4.71V42.77a5.07,5.07,0,0,0-.65-2.49l4.1-2.32a9.78,9.78,0,0,1,1.26,4.8ZM211.17,42l-4.66-.67a9.82,9.82,0,0,1,3.28-6l3.09,3.55A5.11,5.11,0,0,0,211.17,42ZM284.35,38a5,5,0,0,0-1.72-.3H279.9V33h2.73a9.72,9.72,0,0,1,3.33.59Zm-9.76-.3h-5.31V33h5.31Zm-10.62,0h-5.31V33H264Zm-10.62,0h-5.31V33h5.31Zm-10.62,0h-5.31V33h5.31Zm-10.62,0h-5.31V33h5.31Zm-10.62,0h-5.29V33h5.31Z"
             id="path-1"
             style="position: relative;" />
          <path
             class="cls-3"
             d="M191.81,194h-5.34v-4.71h5.34Zm-10.65,0h-5.31v-4.71h5.31Zm-10.62,0h-5.31v-4.71h5.31Zm-10.62,0h-5.31v-4.71h5.31Zm-10.62,0H144v-4.71h5.31Zm-10.62,0h-5.31v-4.71h5.31Zm-10.62,0h-2.71a9.73,9.73,0,0,1-3.35-.59l1.62-4.42a5,5,0,0,0,1.73.31h2.71Zm70.13-2.42-3.09-3.55a5.11,5.11,0,0,0,1.71-3.12l4.66.67A9.82,9.82,0,0,1,198.21,191.62ZM116.82,189a9.78,9.78,0,0,1-1.25-4.79v-1.51h4.71v1.51a5.06,5.06,0,0,0,.65,2.48Zm84.76-9h-4.71v-5.31h4.71Zm-81.31-2.57h-4.71v-5.31h4.71Zm81.31-8.05h-4.71v-5.31h4.71Zm-81.31-2.57h-4.71v-5.31h4.71Zm81.31-8h-4.71v-5.31h4.71Zm-81.31-2.57h-4.71v-5.31h4.71Zm81.31-8.05h-4.71v-5.31h4.71Zm-81.31-2.57h-4.71v-5.31h4.71Zm81.31-8h-4.71v-5.31h4.71ZM120.27,135h-4.71v-5.31h4.71Zm81.31-8.05h-4.71v-1.49a5.06,5.06,0,0,0-.65-2.49l4.1-2.32a9.78,9.78,0,0,1,1.26,4.8Zm-81.26-2.22-4.66-.68a9.82,9.82,0,0,1,3.28-6l3.09,3.55A5.11,5.11,0,0,0,120.32,124.68Zm73.18-4.07a5,5,0,0,0-1.72-.3h-2.73V115.6h2.73a9.72,9.72,0,0,1,3.33.59Zm-9.76-.3h-5.31V115.6h5.31Zm-10.62,0h-5.31V115.6h5.31Zm-10.62,0H157.2V115.6h5.31Zm-10.62,0h-5.31V115.6h5.31Zm-10.62,0H136V115.6h5.31Zm-10.62,0h-5.29V115.6h5.31Z"
             id="path-2"
             style="position: relative;" />
          <path
             class="cls-3"
             d="M282.66,194h-5.34v-4.71h5.34ZM272,194h-5.31v-4.71H272Zm-10.62,0h-5.31v-4.71h5.31Zm-10.62,0h-5.31v-4.71h5.31Zm-10.62,0h-5.31v-4.71h5.31Zm-10.62,0h-5.31v-4.71h5.31Zm-10.62,0h-2.71a9.72,9.72,0,0,1-3.35-.59l1.62-4.42a5,5,0,0,0,1.73.31h2.71Zm70.13-2.42L286,188.07a5.11,5.11,0,0,0,1.71-3.12l4.66.67A9.82,9.82,0,0,1,289.06,191.62ZM207.67,189a9.78,9.78,0,0,1-1.25-4.79v-1.51h4.71v1.51a5.07,5.07,0,0,0,.65,2.48Zm84.76-9h-4.71v-5.31h4.71Zm-81.31-2.57h-4.71v-5.31h4.71Zm81.31-8.05h-4.71v-5.31h4.71Zm-81.31-2.57h-4.71v-5.31h4.71Zm81.31-8.05h-4.71v-5.31h4.71Zm-81.31-2.57h-4.71v-5.31h4.71Zm81.31-8.05h-4.71v-5.31h4.71Zm-81.31-2.57h-4.71v-5.31h4.71Zm81.31-8.05h-4.71v-5.31h4.71ZM211.12,135h-4.71v-5.31h4.71Zm81.31-8.05h-4.71v-1.49a5.07,5.07,0,0,0-.65-2.49l4.1-2.32a9.78,9.78,0,0,1,1.26,4.8Zm-81.26-2.22-4.66-.67a9.82,9.82,0,0,1,3.28-6l3.09,3.55A5.11,5.11,0,0,0,211.17,124.68Zm73.18-4.07a5,5,0,0,0-1.72-.3H279.9V115.6h2.73a9.72,9.72,0,0,1,3.33.59Zm-9.76-.3h-5.31V115.6h5.31Zm-10.62,0h-5.31V115.6H264Zm-10.62,0h-5.31V115.6h5.31Zm-10.62,0h-5.31V115.6h5.31Zm-10.62,0h-5.31V115.6h5.31Zm-10.62,0h-5.29V115.6h5.31Z"
             id="path-3"
             style="position: relative; display: inline; fill: rgb(222, 222, 222); stroke: none;"
             transform=""
             fill="#ad5555" />
          <g
             id="g16">
            <g
               class="cls-4"
               id="g13">
              <rect
                 x="191.39"
                 y="87.08"
                 width="81.57"
                 height="73.73"
                 rx="6.27"
                 ry="6.27"
                 id="rect-0"
                 style="display: inline; fill: rgb(52, 73, 94); stroke: none;"
                 transform="scale(1) translate(20,25) rotate(0 586.9499893188477 291.0499954223633)" />
            </g>
            <rect
               class="cls-5"
               x="180.93"
               y="76.62"
               width="81.57"
               height="73.73"
               rx="6.27"
               ry="6.27"
               id="rect-1"
               transform="scale(1) translate(20,30) rotate(0 682.5833587646484 256.4916687011719)"
               style="display:inline;fill:#ff0000"
               fill="#62b5c4" />
          </g>
          <circle
             class="cls-6"
             cx="195.77"
             cy="91.59"
             r="9.61"
             id="circle-0"
             style="position:relative;display:inline;fill:#008000;stroke:none"
             transform="scale(1) translate(15,15) rotate(0 586.9499893188477 291.0499954223633)" />
          <polygon
             class="cls-6"
             points="258,144.5 186,144.5 186,134.87 202.25,118.73 210.38,126.8 216.77,120.44 236.48,100.94 253.37,117.71 258,121.96 "
             id="polygon18"
             style="display:inline;fill:#008000;image-rendering:auto" />
        </g>
        <rect
           class="cls-7"
           width="400"
           height="225"
           id="rect-2"
           style="display: none;" />
      </g>
    </g>
    <text
       xml:space="preserve"
       style="font-style:normal;font-variant:normal;font-weight:normal;font-stretch:normal;font-size:20.8606px;line-height:1.25;font-family:sans-serif;-inkscape-font-specification:'sans-serif, Normal';font-variant-ligatures:normal;font-variant-caps:normal;font-variant-numeric:normal;font-feature-settings:normal;text-align:start;letter-spacing:0px;word-spacing:0px;writing-mode:lr-tb;text-anchor:start;fill:#000000;fill-opacity:1;stroke:none;stroke-width:1.30378"
       x="88.80722"
       y="236.84325"
       id="text877"
       transform="scale(1.3037846,0.76699787)"><tspan
         sodipodi:role="line"
         id="tspan875"
         x="88.80722"
         y="236.84325"
         style="font-style:normal;font-variant:normal;font-weight:normal;font-stretch:normal;font-size:20.8606px;font-family:sans-serif;-inkscape-font-specification:'sans-serif, Normal';font-variant-ligatures:normal;font-variant-caps:normal;font-variant-numeric:normal;font-feature-settings:normal;text-align:start;writing-mode:lr-tb;text-anchor:start;stroke-width:1.30378">papi Jo</tspan></text>
  </g>
</svg>
